<svg width="285" height="170" viewBox="0 0 285 170" fill="none" xmlns="http://www.w3.org/2000/svg">
<rect width="285" height="170" fill="white"/>
<path d="M32 113.498V74.4463H41.6025C47.673 74.4463 50.653 77.8494 50.653 84.0976V103.847C50.653 110.095 47.673 113.498 41.6025 113.498H32ZM41.4921 80.0251H38.0705V107.919H41.4921C43.4236 107.919 44.5825 106.915 44.5825 104.126V83.8187C44.5825 81.0293 43.4236 80.0251 41.4921 80.0251Z" fill="#5C0287"/>
<path d="M53.9754 113.498V107.919C54.6377 107.975 55.4103 107.975 56.0725 107.975C58.0041 107.975 59.5493 107.25 59.5493 104.237V74.4463H65.6198V103.791C65.6198 111.601 61.4808 113.609 56.9003 113.609C55.7966 113.609 54.9688 113.609 53.9754 113.498Z" fill="#5C0287"/>
<path d="M84.3203 74.4463L90.5011 113.498H84.3754L83.3269 106.413H75.8767L74.8282 113.498H69.2543L75.4352 74.4463H84.3203ZM79.5742 81.364L76.6493 101.113H82.4991L79.5742 81.364Z" fill="#5C0287"/>
<path d="M107.401 113.498L99.8402 85.2134V113.498H94.3767V74.4463H101.992L108.229 97.8215V74.4463H113.637V113.498H107.401Z" fill="#5C0287"/>
<path d="M128.193 97.3194V91.7406H136.691V104.126C136.691 110.374 133.601 113.944 127.641 113.944C121.681 113.944 118.59 110.374 118.59 104.126V83.8187C118.59 77.5704 121.681 74 127.641 74C133.601 74 136.691 77.5704 136.691 83.8187V87.6123H130.952V83.4282C130.952 80.6388 129.738 79.5788 127.806 79.5788C125.875 79.5788 124.661 80.6388 124.661 83.4282V104.516C124.661 107.305 125.875 108.31 127.806 108.31C129.738 108.31 130.952 107.305 130.952 104.516V97.3194H128.193Z" fill="#5C0287"/>
<path d="M147.268 83.4282V104.516C147.268 107.305 148.482 108.365 150.413 108.365C152.345 108.365 153.559 107.305 153.559 104.516V83.4282C153.559 80.6388 152.345 79.5788 150.413 79.5788C148.482 79.5788 147.268 80.6388 147.268 83.4282ZM141.197 104.126V83.8187C141.197 77.5704 144.453 74 150.413 74C156.374 74 159.63 77.5704 159.63 83.8187V104.126C159.63 110.374 156.374 113.944 150.413 113.944C144.453 113.944 141.197 110.374 141.197 104.126Z" fill="#5C0287"/>
<path d="M177.647 113.498L170.087 85.2134V113.498H164.623V74.4463H172.239L178.475 97.8215V74.4463H183.883V113.498H177.647Z" fill="#5C0287"/>
<path d="M202.799 74.4463L208.98 113.498H202.854L201.805 106.413H194.355L193.307 113.498H187.733L193.914 74.4463H202.799ZM198.053 81.364L195.128 101.113H200.978L198.053 81.364Z" fill="#5C0287"/>
<path d="M212.634 74.4463H218.705V104.572C218.705 107.361 219.919 108.365 221.851 108.365C223.782 108.365 224.996 107.361 224.996 104.572V74.4463H230.736V104.181C230.736 110.43 227.645 114 221.685 114C215.725 114 212.634 110.43 212.634 104.181V74.4463Z" fill="#5C0287"/>
<path d="M234.237 80.0251V74.4463H253V80.0251H246.654V113.498H240.583V80.0251H234.237Z" fill="#5C0287"/>
<path d="M95.0789 123.67C95.0789 120.698 96.5245 119 99.3369 119C102.149 119 103.595 120.698 103.595 123.67V124.254H100.861V123.485C100.861 122.158 100.336 121.654 99.4158 121.654C98.4958 121.654 97.9701 122.158 97.9701 123.485C97.9701 127.306 103.621 128.022 103.621 133.33C103.621 136.302 102.149 138 99.3106 138C96.4719 138 95 136.302 95 133.33V132.189H97.7336V133.515C97.7336 134.842 98.3118 135.32 99.2318 135.32C100.152 135.32 100.73 134.842 100.73 133.515C100.73 129.694 95.0789 128.978 95.0789 123.67Z" fill="#5C0287"/>
<path d="M121.109 119.212C124 119.212 125.419 120.831 125.419 123.803V126.218C125.419 129.19 124 130.809 121.109 130.809H119.742V137.788H116.851V119.212H121.109ZM121.109 121.866H119.742V128.155H121.109C122.029 128.155 122.528 127.73 122.528 126.404V123.617C122.528 122.29 122.029 121.866 121.109 121.866Z" fill="#5C0287"/>
<path d="M144.54 119.212L147.483 137.788H144.566L144.066 134.418H140.518L140.019 137.788H137.364L140.308 119.212H144.54ZM142.279 122.503L140.886 131.897H143.672L142.279 122.503Z" fill="#5C0287"/>
<path d="M166.054 130.862H168.788V133.33C168.788 136.302 167.316 138 164.477 138C161.638 138 160.166 136.302 160.166 133.33V123.67C160.166 120.698 161.638 119 164.477 119C167.316 119 168.788 120.698 168.788 123.67V125.475H166.054V123.485C166.054 122.158 165.476 121.654 164.556 121.654C163.636 121.654 163.058 122.158 163.058 123.485V133.515C163.058 134.842 163.636 135.32 164.556 135.32C165.476 135.32 166.054 134.842 166.054 133.515V130.862Z" fill="#5C0287"/>
<path d="M185.006 121.866V127.04H188.975V129.694H185.006V135.134H190V137.788H182.115V119.212H190V121.866H185.006Z" fill="#5C0287"/>
<path d="M146.507 44.7958C146.432 40.2901 145.405 36.2941 143.837 33.6722C143.251 32.6939 141.923 32.6938 141.338 33.6721C139.785 36.2669 138.763 40.2075 138.67 44.6561C136.472 46.3369 135 49.4201 135 52.9451C135 54.1233 136.519 54.4484 137.444 53.7193C138.87 52.5961 140.615 51.9354 142.5 51.9354C144.385 51.9354 146.13 52.5961 147.556 53.7193C148.481 54.4484 150 54.1233 150 52.9451C150 49.5156 148.606 46.5043 146.507 44.7958Z" fill="#5C0287"/>
<path opacity="0.5" d="M139.988 58.898C139.371 57.3408 139.654 55.4582 141.294 55.1183C141.649 55.0448 142.05 55 142.5 55C142.95 55 143.351 55.0448 143.706 55.1184C145.346 55.4582 145.629 57.3409 145.012 58.8981L144.799 59.438C144.425 60.3808 143.514 61 142.5 61C141.486 61 140.575 60.3808 140.201 59.438L139.988 58.898Z" fill="#5C0287"/>
<path fill-rule="evenodd" clip-rule="evenodd" d="M153.696 46.3579C180.439 47.0215 206.13 50.0595 230.169 55.1202C206.3 49.0101 180.204 45.3198 152.79 44.5803C153.124 45.1454 153.427 45.7391 153.696 46.3579ZM132.267 44.5808C104.861 45.3217 78.7727 49.0116 54.9096 55.1202C78.9418 50.0608 104.626 47.0231 131.361 46.3584C131.631 45.7396 131.933 45.1459 132.267 44.5808Z" fill="#5C0287"/>
</svg>
